<svg width="30" height="30" viewBox="0 0 30 30" fill="none" xmlns="http://www.w3.org/2000/svg">
<rect x="0.5" y="0.5" width="29" height="29" fill="#1B1B1B" stroke="white"/>
<path d="M18.3892 9.90909V11.2301H11.9545V9.90909H18.3892ZM13.9659 23V7.99148C13.9659 7.28693 14.1278 6.69318 14.4517 6.21023C14.7813 5.72727 15.2102 5.36079 15.7386 5.11079C16.267 4.86079 16.8267 4.73579 17.4176 4.73579C17.8153 4.73579 18.1449 4.76989 18.4062 4.83807C18.6733 4.90057 18.8835 4.96307 19.0369 5.02557L18.5938 6.35511C18.4801 6.32102 18.3409 6.28125 18.1761 6.23579C18.0114 6.19034 17.804 6.16761 17.554 6.16761C16.8949 6.16761 16.3864 6.35227 16.0284 6.72159C15.6705 7.09091 15.4915 7.61932 15.4915 8.30682L15.483 23H13.9659Z" fill="white"/>
</svg>
