<svg width="100" height="90" viewBox="0 0 100 90" fill="none" xmlns="http://www.w3.org/2000/svg">
<rect x="1.5" y="1.5" width="97" height="87" fill="#1B1B1B" stroke="white" stroke-width="3"/>
<path d="M7.90039 25.7187V24H19.9004V25.7187H14.8691V40H12.9316V25.7187H7.90039ZM21.6777 40H19.6465L25.5215 24H27.5215L33.3965 40H31.3652L26.584 26.5312H26.459L21.6777 40ZM22.4277 33.75H30.6152V35.4687H22.4277V33.75ZM33.1445 25.7187V24H45.1445V25.7187H40.1133V40H38.1758V25.7187H33.1445ZM47.2598 25.7187V24H59.2598V25.7187H54.2285V40H52.291V25.7187H47.2598ZM75.084 32C75.084 33.6875 74.7793 35.1458 74.1699 36.375C73.5605 37.6042 72.7246 38.5521 71.6621 39.2188C70.5996 39.8854 69.3861 40.2187 68.0215 40.2187C66.6569 40.2187 65.4434 39.8854 64.3809 39.2188C63.3184 38.5521 62.4824 37.6042 61.873 36.375C61.2637 35.1458 60.959 33.6875 60.959 32C60.959 30.3125 61.2637 28.8542 61.873 27.625C62.4824 26.3958 63.3184 25.4479 64.3809 24.7812C65.4434 24.1146 66.6569 23.7812 68.0215 23.7812C69.3861 23.7812 70.5996 24.1146 71.6621 24.7812C72.7246 25.4479 73.5605 26.3958 74.1699 27.625C74.7793 28.8542 75.084 30.3125 75.084 32ZM73.209 32C73.209 30.6146 72.9772 29.4453 72.5137 28.4922C72.0553 27.5391 71.4329 26.8177 70.6465 26.3281C69.8652 25.8385 68.9902 25.5937 68.0215 25.5937C67.0527 25.5937 66.1751 25.8385 65.3887 26.3281C64.6074 26.8177 63.985 27.5391 63.5215 28.4922C63.0632 29.4453 62.834 30.6146 62.834 32C62.834 33.3854 63.0632 34.5547 63.5215 35.5078C63.985 36.4609 64.6074 37.1823 65.3887 37.6719C66.1751 38.1615 67.0527 38.4062 68.0215 38.4062C68.9902 38.4062 69.8652 38.1615 70.6465 37.6719C71.4329 37.1823 72.0553 36.4609 72.5137 35.5078C72.9772 34.5547 73.209 33.3854 73.209 32ZM91.8418 32C91.8418 33.6875 91.5371 35.1458 90.9277 36.375C90.3184 37.6042 89.4824 38.5521 88.4199 39.2188C87.3574 39.8854 86.1439 40.2187 84.7793 40.2187C83.4147 40.2187 82.2012 39.8854 81.1387 39.2188C80.0762 38.5521 79.2402 37.6042 78.6309 36.375C78.0215 35.1458 77.7168 33.6875 77.7168 32C77.7168 30.3125 78.0215 28.8542 78.6309 27.625C79.2402 26.3958 80.0762 25.4479 81.1387 24.7812C82.2012 24.1146 83.4147 23.7812 84.7793 23.7812C86.1439 23.7812 87.3574 24.1146 88.4199 24.7812C89.4824 25.4479 90.3184 26.3958 90.9277 27.625C91.5371 28.8542 91.8418 30.3125 91.8418 32ZM89.9668 32C89.9668 30.6146 89.735 29.4453 89.2715 28.4922C88.8132 27.5391 88.1908 26.8177 87.4043 26.3281C86.623 25.8385 85.748 25.5937 84.7793 25.5937C83.8105 25.5937 82.9329 25.8385 82.1465 26.3281C81.3652 26.8177 80.7428 27.5391 80.2793 28.4922C79.821 29.4453 79.5918 30.6146 79.5918 32C79.5918 33.3854 79.821 34.5547 80.2793 35.5078C80.7428 36.4609 81.3652 37.1823 82.1465 37.6719C82.9329 38.1615 83.8105 38.4062 84.7793 38.4062C85.748 38.4062 86.623 38.1615 87.4043 37.6719C88.1908 37.1823 88.8132 36.4609 89.2715 35.5078C89.735 34.5547 89.9668 33.3854 89.9668 32ZM21.1289 67V51H23.0664V65.2812H30.5039V67H21.1289ZM46.3809 59C46.3809 60.6875 46.0762 62.1458 45.4668 63.375C44.8574 64.6042 44.0215 65.5521 42.959 66.2188C41.8965 66.8854 40.6829 67.2187 39.3184 67.2187C37.9538 67.2187 36.7402 66.8854 35.6777 66.2188C34.6152 65.5521 33.7793 64.6042 33.1699 63.375C32.5605 62.1458 32.2559 60.6875 32.2559 59C32.2559 57.3125 32.5605 55.8542 33.1699 54.625C33.7793 53.3958 34.6152 52.4479 35.6777 51.7812C36.7402 51.1146 37.9538 50.7812 39.3184 50.7812C40.6829 50.7812 41.8965 51.1146 42.959 51.7812C44.0215 52.4479 44.8574 53.3958 45.4668 54.625C46.0762 55.8542 46.3809 57.3125 46.3809 59ZM44.5059 59C44.5059 57.6146 44.2741 56.4453 43.8105 55.4922C43.3522 54.5391 42.7298 53.8177 41.9434 53.3281C41.1621 52.8385 40.2871 52.5937 39.3184 52.5937C38.3496 52.5937 37.472 52.8385 36.6855 53.3281C35.9043 53.8177 35.2819 54.5391 34.8184 55.4922C34.36 56.4453 34.1309 57.6146 34.1309 59C34.1309 60.3854 34.36 61.5547 34.8184 62.5078C35.2819 63.4609 35.9043 64.1823 36.6855 64.6719C37.472 65.1615 38.3496 65.4062 39.3184 65.4062C40.2871 65.4062 41.1621 65.1615 41.9434 64.6719C42.7298 64.1823 43.3522 63.4609 43.8105 62.5078C44.2741 61.5547 44.5059 60.3854 44.5059 59ZM60.5762 56C60.4043 55.474 60.1777 55.0026 59.8965 54.5859C59.6204 54.1641 59.2897 53.8047 58.9043 53.5078C58.5241 53.2109 58.0918 52.9844 57.6074 52.8281C57.123 52.6719 56.5918 52.5937 56.0137 52.5937C55.0658 52.5937 54.2038 52.8385 53.4277 53.3281C52.6517 53.8177 52.0345 54.5391 51.5762 55.4922C51.1178 56.4453 50.8887 57.6146 50.8887 59C50.8887 60.3854 51.1204 61.5547 51.584 62.5078C52.0475 63.4609 52.6751 64.1823 53.4668 64.6719C54.2585 65.1615 55.1491 65.4062 56.1387 65.4062C57.0553 65.4062 57.8626 65.2109 58.5605 64.8203C59.2637 64.4245 59.8105 63.8672 60.2012 63.1484C60.597 62.4245 60.7949 61.5729 60.7949 60.5937L61.3887 60.7187H56.5762V59H62.6699V60.7187C62.6699 62.0365 62.3887 63.1823 61.8262 64.1562C61.2689 65.1302 60.498 65.8854 59.5137 66.4219C58.5345 66.9531 57.4095 67.2187 56.1387 67.2187C54.722 67.2187 53.4772 66.8854 52.4043 66.2188C51.3366 65.5521 50.5033 64.6042 49.9043 63.375C49.3105 62.1458 49.0137 60.6875 49.0137 59C49.0137 57.7344 49.1829 56.5964 49.5215 55.5859C49.8652 54.5703 50.3496 53.7057 50.9746 52.9922C51.5996 52.2786 52.3392 51.7318 53.1934 51.3516C54.0475 50.9714 54.9876 50.7812 56.0137 50.7812C56.8574 50.7812 57.6439 50.9089 58.373 51.1641C59.1074 51.4141 59.7611 51.7708 60.334 52.2344C60.9121 52.6927 61.3939 53.2422 61.7793 53.8828C62.1647 54.5182 62.4303 55.224 62.5762 56H60.5762ZM79.4883 59C79.4883 60.6875 79.1836 62.1458 78.5742 63.375C77.9648 64.6042 77.1289 65.5521 76.0664 66.2188C75.0039 66.8854 73.7904 67.2187 72.4258 67.2187C71.0612 67.2187 69.8477 66.8854 68.7852 66.2188C67.7227 65.5521 66.8867 64.6042 66.2773 63.375C65.668 62.1458 65.3633 60.6875 65.3633 59C65.3633 57.3125 65.668 55.8542 66.2773 54.625C66.8867 53.3958 67.7227 52.4479 68.7852 51.7812C69.8477 51.1146 71.0612 50.7812 72.4258 50.7812C73.7904 50.7812 75.0039 51.1146 76.0664 51.7812C77.1289 52.4479 77.9648 53.3958 78.5742 54.625C79.1836 55.8542 79.4883 57.3125 79.4883 59ZM77.6133 59C77.6133 57.6146 77.3815 56.4453 76.918 55.4922C76.4596 54.5391 75.8372 53.8177 75.0508 53.3281C74.2695 52.8385 73.3945 52.5937 72.4258 52.5937C71.457 52.5937 70.5794 52.8385 69.793 53.3281C69.0117 53.8177 68.3893 54.5391 67.9258 55.4922C67.4674 56.4453 67.2383 57.6146 67.2383 59C67.2383 60.3854 67.4674 61.5547 67.9258 62.5078C68.3893 63.4609 69.0117 64.1823 69.793 64.6719C70.5794 65.1615 71.457 65.4062 72.4258 65.4062C73.3945 65.4062 74.2695 65.1615 75.0508 64.6719C75.8372 64.1823 76.4596 63.4609 76.918 62.5078C77.3815 61.5547 77.6133 60.3854 77.6133 59Z" fill="white"/>
</svg>
