<svg width="57" height="57" viewBox="0 0 57 57" fill="none" xmlns="http://www.w3.org/2000/svg">
<path d="M28.5 0C12.7598 0 0 12.7598 0 28.5C0 44.2402 12.7598 57 28.5 57C44.2402 57 57 44.2402 57 28.5C57 12.7598 44.2402 0 28.5 0Z" fill="#40B3E0"/>
<path d="M42.3677 16.3942L37.2771 42.0596C37.2771 42.0596 36.5653 43.8395 34.6075 42.9851L22.8606 33.9791L18.5891 31.9147L11.3987 29.4939C11.3987 29.4939 10.2952 29.1025 10.1883 28.2482C10.0814 27.3939 11.4343 26.9312 11.4343 26.9312L40.018 15.7182C40.018 15.7182 42.3675 14.686 42.3675 16.3946" fill="white"/>
<path d="M21.9579 41.771C21.9579 41.771 21.615 41.7389 21.1875 40.3861C20.7607 39.0334 18.5891 31.9142 18.5891 31.9142L35.8534 20.9506C35.8534 20.9506 36.8503 20.3454 36.8146 20.9506C36.8146 20.9506 36.9925 21.0575 36.4584 21.5558C35.9247 22.0543 22.8964 33.7654 22.8964 33.7654" fill="#D2E5F1"/>
<path d="M27.3647 37.4319L22.7185 41.6682C22.7185 41.6682 22.3551 41.9438 21.9579 41.771L22.8477 33.9023" fill="#B5CFE4"/>
</svg>
