<svg width="263" height="234" viewBox="0 0 263 234" fill="none" xmlns="http://www.w3.org/2000/svg">
<line x1="5.46528" y1="4.11484" x2="161.465" y2="86.1148" stroke="white" stroke-width="2"/>
<circle cx="5" cy="5" r="5" fill="white"/>
<line x1="161" y1="85" x2="161" y2="190" stroke="white" stroke-width="2"/>
<path d="M44.7273 199.364L47.9489 204.415H48.0227L51.2443 199.364H52.5L48.7557 205.182L52.5 211H51.2443L48.0227 206.006H47.9489L44.7273 211H43.4716L47.2727 205.182L43.4716 199.364H44.7273ZM57.2429 211.182C56.4891 211.182 55.8224 210.991 55.2429 210.608C54.6671 210.225 54.2164 209.697 53.8906 209.023C53.5649 208.345 53.402 207.562 53.402 206.676C53.402 205.782 53.5649 204.996 53.8906 204.318C54.2164 203.636 54.6671 203.106 55.2429 202.727C55.8224 202.345 56.4891 202.153 57.2429 202.153C57.9967 202.153 58.6615 202.345 59.2372 202.727C59.813 203.11 60.2637 203.64 60.5895 204.318C60.919 204.996 61.0838 205.782 61.0838 206.676C61.0838 207.562 60.9209 208.345 60.5952 209.023C60.2694 209.697 59.8168 210.225 59.2372 210.608C58.6615 210.991 57.9967 211.182 57.2429 211.182ZM57.2429 210.256C57.849 210.256 58.3622 210.093 58.7827 209.767C59.2031 209.441 59.5213 209.008 59.7372 208.466C59.9569 207.924 60.0668 207.328 60.0668 206.676C60.0668 206.025 59.9569 205.426 59.7372 204.881C59.5213 204.335 59.2031 203.898 58.7827 203.568C58.3622 203.239 57.849 203.074 57.2429 203.074C56.6406 203.074 56.1274 203.239 55.7031 203.568C55.2827 203.898 54.9626 204.335 54.7429 204.881C54.527 205.426 54.419 206.025 54.419 206.676C54.419 207.328 54.527 207.924 54.7429 208.466C54.9626 209.008 55.2827 209.441 55.7031 209.767C56.1236 210.093 56.6368 210.256 57.2429 210.256ZM62.7415 208.773H63.8153C63.8456 209.239 64.0464 209.602 64.4176 209.864C64.7888 210.125 65.2775 210.256 65.8835 210.256C66.5123 210.256 67.0312 210.116 67.4403 209.835C67.8494 209.551 68.054 209.138 68.054 208.597C68.054 208.267 67.9763 207.981 67.821 207.739C67.6695 207.496 67.4612 207.307 67.196 207.17C66.9347 207.03 66.6373 206.958 66.304 206.955H64.7812V206.028H66.2869C66.8059 205.998 67.1998 205.858 67.4688 205.608C67.7377 205.354 67.8722 205.023 67.8722 204.614C67.8722 204.148 67.7074 203.775 67.3778 203.494C67.0483 203.21 66.6013 203.068 66.0369 203.068C65.465 203.068 64.9896 203.208 64.6108 203.489C64.232 203.769 64.0313 204.129 64.0085 204.568H62.946C62.965 204.095 63.107 203.678 63.3722 203.318C63.6373 202.955 63.9953 202.67 64.446 202.466C64.9006 202.261 65.4157 202.159 65.9915 202.159C66.5824 202.159 67.0956 202.265 67.5312 202.477C67.9669 202.689 68.304 202.979 68.5426 203.347C68.7813 203.71 68.9006 204.123 68.9006 204.585C68.9006 205.066 68.768 205.462 68.5028 205.773C68.2415 206.08 67.9063 206.295 67.4972 206.42V206.506C67.8078 206.54 68.0805 206.653 68.3153 206.847C68.554 207.04 68.7415 207.288 68.8778 207.591C69.0142 207.894 69.0824 208.229 69.0824 208.597C69.0824 209.112 68.9479 209.564 68.679 209.955C68.41 210.341 68.035 210.642 67.554 210.858C67.0767 211.074 66.5256 211.182 65.9006 211.182C65.2983 211.182 64.7623 211.081 64.2926 210.881C63.8229 210.676 63.4498 210.394 63.1733 210.034C62.9006 209.67 62.7566 209.25 62.7415 208.773ZM76.4134 211V203.21H74.0099C73.3849 203.214 72.9096 203.345 72.5838 203.602C72.2618 203.86 72.1009 204.244 72.1009 204.756C72.1009 205.267 72.2543 205.652 72.5611 205.909C72.8679 206.163 73.3149 206.29 73.902 206.29H76.6974V207.244H73.902C73.2997 207.244 72.7884 207.148 72.3679 206.955C71.9512 206.761 71.633 206.479 71.4134 206.108C71.1937 205.737 71.0838 205.286 71.0838 204.756C71.0838 204.222 71.1955 203.771 71.419 203.403C71.6463 203.032 71.9777 202.752 72.4134 202.562C72.8527 202.369 73.3849 202.273 74.0099 202.273H77.3793V211H76.4134ZM70.5327 211L73.044 206.659H74.152L71.6406 211H70.5327ZM81.081 209.562L85.6889 202.273H86.8991V211H85.8878V203.71L81.2969 211H80.0696V202.273H81.081V209.562ZM95.4616 206.165V207.119H90.331V206.165H95.4616ZM90.581 202.273V211H89.5696V202.273H90.581ZM96.206 202.273V211H95.1946V202.273H96.206ZM104.409 209.562L109.017 202.273H110.227V211H109.216V203.71L104.625 211H103.398V202.273H104.409V209.562ZM121.96 209.585L125.239 202.273H126.222L122.364 211H121.557L117.744 202.273H118.71L121.96 209.585ZM118.409 202.273V211H117.398V202.273H118.409ZM125.511 211V202.273H126.523V211H125.511ZM131.648 211.199C131.121 211.199 130.64 211.097 130.205 210.892C129.769 210.684 129.422 210.384 129.165 209.994C128.907 209.6 128.778 209.123 128.778 208.562C128.778 208.131 128.86 207.767 129.023 207.472C129.186 207.176 129.417 206.934 129.716 206.744C130.015 206.555 130.369 206.405 130.778 206.295C131.188 206.186 131.638 206.1 132.131 206.04C132.619 205.979 133.032 205.926 133.369 205.881C133.71 205.835 133.97 205.763 134.148 205.665C134.326 205.566 134.415 205.407 134.415 205.188V204.983C134.415 204.388 134.237 203.92 133.881 203.58C133.528 203.235 133.021 203.062 132.358 203.062C131.729 203.062 131.216 203.201 130.818 203.477C130.424 203.754 130.148 204.08 129.989 204.455L129.028 204.108C129.225 203.631 129.498 203.25 129.847 202.966C130.195 202.678 130.585 202.472 131.017 202.347C131.449 202.218 131.886 202.153 132.33 202.153C132.663 202.153 133.009 202.197 133.369 202.284C133.733 202.371 134.07 202.523 134.381 202.739C134.691 202.951 134.943 203.248 135.136 203.631C135.33 204.009 135.426 204.491 135.426 205.074V211H134.415V209.619H134.352C134.231 209.877 134.051 210.127 133.812 210.369C133.574 210.612 133.275 210.811 132.915 210.966C132.555 211.121 132.133 211.199 131.648 211.199ZM131.784 210.273C132.322 210.273 132.788 210.153 133.182 209.915C133.576 209.676 133.879 209.36 134.091 208.966C134.307 208.568 134.415 208.131 134.415 207.653V206.392C134.339 206.464 134.212 206.528 134.034 206.585C133.86 206.642 133.657 206.693 133.426 206.739C133.199 206.78 132.972 206.816 132.744 206.847C132.517 206.877 132.312 206.903 132.131 206.926C131.638 206.987 131.218 207.081 130.869 207.21C130.521 207.339 130.254 207.517 130.068 207.744C129.883 207.968 129.79 208.256 129.79 208.608C129.79 209.138 129.979 209.549 130.358 209.841C130.737 210.129 131.212 210.273 131.784 210.273ZM141.526 211.182C140.745 211.182 140.065 210.987 139.486 210.597C138.91 210.206 138.463 209.672 138.145 208.994C137.827 208.316 137.668 207.544 137.668 206.676C137.668 205.801 137.829 205.023 138.151 204.341C138.476 203.659 138.927 203.125 139.503 202.739C140.079 202.348 140.747 202.153 141.509 202.153C142.092 202.153 142.62 202.267 143.094 202.494C143.567 202.718 143.957 203.034 144.264 203.443C144.575 203.848 144.77 204.322 144.849 204.864H143.827C143.721 204.371 143.465 203.951 143.06 203.602C142.658 203.25 142.147 203.074 141.526 203.074C140.969 203.074 140.476 203.225 140.048 203.528C139.62 203.828 139.285 204.246 139.043 204.784C138.804 205.318 138.685 205.937 138.685 206.642C138.685 207.35 138.802 207.977 139.037 208.523C139.272 209.064 139.601 209.489 140.026 209.795C140.454 210.102 140.954 210.256 141.526 210.256C141.912 210.256 142.264 210.184 142.582 210.04C142.904 209.892 143.173 209.684 143.389 209.415C143.609 209.146 143.757 208.826 143.832 208.455H144.855C144.779 208.981 144.592 209.451 144.293 209.864C143.997 210.273 143.613 210.595 143.139 210.83C142.67 211.064 142.132 211.182 141.526 211.182ZM146.301 203.227V202.273H153.119V203.227H150.233V211H149.222V203.227H146.301ZM158.332 211.182C157.518 211.182 156.813 210.992 156.219 210.614C155.624 210.231 155.164 209.703 154.838 209.028C154.516 208.35 154.355 207.57 154.355 206.688C154.355 205.809 154.516 205.028 154.838 204.347C155.164 203.661 155.613 203.125 156.185 202.739C156.76 202.348 157.425 202.153 158.179 202.153C158.652 202.153 159.109 202.241 159.548 202.415C159.988 202.585 160.382 202.848 160.73 203.205C161.082 203.557 161.361 204.002 161.565 204.54C161.77 205.074 161.872 205.706 161.872 206.438V206.938H155.054V206.045H160.838C160.838 205.485 160.724 204.981 160.497 204.534C160.274 204.083 159.961 203.727 159.56 203.466C159.162 203.205 158.702 203.074 158.179 203.074C157.626 203.074 157.139 203.222 156.719 203.517C156.298 203.812 155.969 204.203 155.73 204.688C155.495 205.172 155.376 205.703 155.372 206.278V206.812C155.372 207.506 155.491 208.112 155.73 208.631C155.973 209.146 156.315 209.545 156.759 209.83C157.202 210.114 157.726 210.256 158.332 210.256C158.745 210.256 159.107 210.191 159.418 210.062C159.732 209.934 159.995 209.761 160.207 209.545C160.423 209.326 160.586 209.085 160.696 208.824L161.656 209.136C161.524 209.504 161.306 209.843 161.003 210.153C160.704 210.464 160.329 210.714 159.878 210.903C159.431 211.089 158.916 211.182 158.332 211.182ZM164.101 214.273V202.273H165.084V203.938H165.203C165.324 203.676 165.491 203.409 165.703 203.136C165.915 202.86 166.196 202.627 166.544 202.438C166.896 202.248 167.339 202.153 167.874 202.153C168.593 202.153 169.222 202.343 169.76 202.722C170.302 203.097 170.722 203.623 171.021 204.301C171.324 204.975 171.476 205.761 171.476 206.659C171.476 207.561 171.324 208.35 171.021 209.028C170.722 209.706 170.302 210.235 169.76 210.614C169.222 210.992 168.597 211.182 167.885 211.182C167.358 211.182 166.917 211.087 166.561 210.898C166.209 210.708 165.923 210.475 165.703 210.199C165.487 209.919 165.321 209.646 165.203 209.381H165.112V214.273H164.101ZM165.101 206.642C165.101 207.347 165.205 207.972 165.413 208.517C165.625 209.059 165.929 209.485 166.322 209.795C166.72 210.102 167.201 210.256 167.766 210.256C168.345 210.256 168.834 210.097 169.232 209.778C169.633 209.456 169.938 209.023 170.146 208.477C170.358 207.932 170.464 207.32 170.464 206.642C170.464 205.972 170.36 205.367 170.152 204.83C169.947 204.292 169.644 203.866 169.243 203.551C168.841 203.233 168.349 203.074 167.766 203.074C167.197 203.074 166.714 203.227 166.317 203.534C165.919 203.837 165.616 204.258 165.408 204.795C165.203 205.33 165.101 205.945 165.101 206.642ZM178.405 211V199.364H182.331C183.089 199.364 183.719 199.496 184.223 199.761C184.731 200.027 185.111 200.388 185.365 200.847C185.619 201.305 185.746 201.826 185.746 202.409C185.746 202.894 185.664 203.309 185.501 203.653C185.339 203.998 185.117 204.277 184.837 204.489C184.556 204.701 184.244 204.854 183.899 204.949V205.04C184.274 205.066 184.638 205.199 184.99 205.438C185.342 205.672 185.632 206.002 185.859 206.426C186.087 206.85 186.2 207.358 186.2 207.949C186.2 208.536 186.07 209.061 185.808 209.523C185.547 209.981 185.145 210.343 184.604 210.608C184.066 210.869 183.38 211 182.547 211H178.405ZM179.467 210.045H182.547C183.445 210.045 184.107 209.847 184.536 209.449C184.967 209.051 185.183 208.551 185.183 207.949C185.183 207.506 185.075 207.104 184.859 206.744C184.647 206.381 184.346 206.093 183.956 205.881C183.57 205.669 183.115 205.562 182.592 205.562H179.467V210.045ZM179.467 204.619H182.428C182.886 204.619 183.287 204.525 183.632 204.335C183.977 204.146 184.246 203.884 184.439 203.551C184.632 203.218 184.729 202.837 184.729 202.409C184.729 201.792 184.528 201.29 184.126 200.903C183.725 200.513 183.126 200.318 182.331 200.318H179.467V204.619ZM187.696 211V210.045H187.969C188.279 210.045 188.529 209.989 188.719 209.875C188.912 209.758 189.062 209.561 189.168 209.284C189.274 209.008 189.353 208.631 189.406 208.153C189.459 207.676 189.501 207.078 189.531 206.358L189.719 202.273H195.264V211H194.247V203.227H190.679L190.514 206.699C190.48 207.407 190.423 208.03 190.344 208.568C190.268 209.106 190.143 209.555 189.969 209.915C189.798 210.275 189.56 210.545 189.253 210.727C188.95 210.909 188.552 211 188.06 211H187.696ZM200.382 211.199C199.856 211.199 199.375 211.097 198.939 210.892C198.503 210.684 198.157 210.384 197.899 209.994C197.642 209.6 197.513 209.123 197.513 208.562C197.513 208.131 197.594 207.767 197.757 207.472C197.92 207.176 198.151 206.934 198.45 206.744C198.75 206.555 199.104 206.405 199.513 206.295C199.922 206.186 200.373 206.1 200.865 206.04C201.354 205.979 201.767 205.926 202.104 205.881C202.445 205.835 202.704 205.763 202.882 205.665C203.06 205.566 203.149 205.407 203.149 205.188V204.983C203.149 204.388 202.971 203.92 202.615 203.58C202.263 203.235 201.755 203.062 201.092 203.062C200.464 203.062 199.95 203.201 199.553 203.477C199.159 203.754 198.882 204.08 198.723 204.455L197.763 204.108C197.96 203.631 198.232 203.25 198.581 202.966C198.929 202.678 199.32 202.472 199.751 202.347C200.183 202.218 200.621 202.153 201.064 202.153C201.397 202.153 201.744 202.197 202.104 202.284C202.467 202.371 202.804 202.523 203.115 202.739C203.426 202.951 203.678 203.248 203.871 203.631C204.064 204.009 204.161 204.491 204.161 205.074V211H203.149V209.619H203.087C202.965 209.877 202.786 210.127 202.547 210.369C202.308 210.612 202.009 210.811 201.649 210.966C201.289 211.121 200.867 211.199 200.382 211.199ZM200.518 210.273C201.056 210.273 201.522 210.153 201.916 209.915C202.31 209.676 202.613 209.36 202.825 208.966C203.041 208.568 203.149 208.131 203.149 207.653V206.392C203.073 206.464 202.946 206.528 202.768 206.585C202.594 206.642 202.392 206.693 202.161 206.739C201.933 206.78 201.706 206.816 201.479 206.847C201.251 206.877 201.047 206.903 200.865 206.926C200.373 206.987 199.952 207.081 199.604 207.21C199.255 207.339 198.988 207.517 198.803 207.744C198.617 207.968 198.524 208.256 198.524 208.608C198.524 209.138 198.714 209.549 199.092 209.841C199.471 210.129 199.946 210.273 200.518 210.273ZM205.817 213.483V210.045H206.572C206.762 209.833 206.927 209.604 207.067 209.358C207.207 209.112 207.328 208.831 207.43 208.517C207.536 208.199 207.625 207.83 207.697 207.409C207.769 206.985 207.83 206.491 207.879 205.926L208.197 202.273H213.362V210.045H214.658V213.483H213.646V211H206.834V213.483H205.817ZM207.737 210.045H212.351V203.227H209.141L208.879 205.926C208.788 206.843 208.66 207.642 208.493 208.324C208.326 209.006 208.074 209.58 207.737 210.045ZM217.597 209.562L222.205 202.273H223.415V211H222.403V203.71L217.812 211H216.585V202.273H217.597V209.562ZM229.494 211.182C228.714 211.182 228.034 210.987 227.455 210.597C226.879 210.206 226.432 209.672 226.114 208.994C225.795 208.316 225.636 207.544 225.636 206.676C225.636 205.801 225.797 205.023 226.119 204.341C226.445 203.659 226.896 203.125 227.472 202.739C228.047 202.348 228.716 202.153 229.477 202.153C230.061 202.153 230.589 202.267 231.062 202.494C231.536 202.718 231.926 203.034 232.233 203.443C232.544 203.848 232.739 204.322 232.818 204.864H231.795C231.689 204.371 231.434 203.951 231.028 203.602C230.627 203.25 230.116 203.074 229.494 203.074C228.938 203.074 228.445 203.225 228.017 203.528C227.589 203.828 227.254 204.246 227.011 204.784C226.773 205.318 226.653 205.937 226.653 206.642C226.653 207.35 226.771 207.977 227.006 208.523C227.241 209.064 227.57 209.489 227.994 209.795C228.422 210.102 228.922 210.256 229.494 210.256C229.881 210.256 230.233 210.184 230.551 210.04C230.873 209.892 231.142 209.684 231.358 209.415C231.578 209.146 231.725 208.826 231.801 208.455H232.824C232.748 208.981 232.561 209.451 232.261 209.864C231.966 210.273 231.581 210.595 231.108 210.83C230.638 211.064 230.1 211.182 229.494 211.182ZM234.134 211V210.045H234.406C234.717 210.045 234.967 209.989 235.156 209.875C235.349 209.758 235.499 209.561 235.605 209.284C235.711 209.008 235.791 208.631 235.844 208.153C235.897 207.676 235.938 207.078 235.969 206.358L236.156 202.273H241.702V211H240.685V203.227H237.116L236.952 206.699C236.918 207.407 236.861 208.03 236.781 208.568C236.705 209.106 236.58 209.555 236.406 209.915C236.236 210.275 235.997 210.545 235.69 210.727C235.387 210.909 234.99 211 234.497 211H234.134ZM246.82 211.199C246.293 211.199 245.812 211.097 245.376 210.892C244.941 210.684 244.594 210.384 244.337 209.994C244.079 209.6 243.95 209.123 243.95 208.562C243.95 208.131 244.032 207.767 244.195 207.472C244.357 207.176 244.589 206.934 244.888 206.744C245.187 206.555 245.541 206.405 245.95 206.295C246.359 206.186 246.81 206.1 247.303 206.04C247.791 205.979 248.204 205.926 248.541 205.881C248.882 205.835 249.142 205.763 249.32 205.665C249.498 205.566 249.587 205.407 249.587 205.188V204.983C249.587 204.388 249.409 203.92 249.053 203.58C248.7 203.235 248.193 203.062 247.53 203.062C246.901 203.062 246.388 203.201 245.99 203.477C245.596 203.754 245.32 204.08 245.161 204.455L244.2 204.108C244.397 203.631 244.67 203.25 245.018 202.966C245.367 202.678 245.757 202.472 246.189 202.347C246.621 202.218 247.058 202.153 247.501 202.153C247.835 202.153 248.181 202.197 248.541 202.284C248.905 202.371 249.242 202.523 249.553 202.739C249.863 202.951 250.115 203.248 250.308 203.631C250.501 204.009 250.598 204.491 250.598 205.074V211H249.587V209.619H249.524C249.403 209.877 249.223 210.127 248.984 210.369C248.746 210.612 248.446 210.811 248.087 210.966C247.727 211.121 247.304 211.199 246.82 211.199ZM246.956 210.273C247.494 210.273 247.96 210.153 248.354 209.915C248.748 209.676 249.051 209.36 249.263 208.966C249.479 208.568 249.587 208.131 249.587 207.653V206.392C249.511 206.464 249.384 206.528 249.206 206.585C249.032 206.642 248.829 206.693 248.598 206.739C248.371 206.78 248.143 206.816 247.916 206.847C247.689 206.877 247.484 206.903 247.303 206.926C246.81 206.987 246.39 207.081 246.041 207.21C245.693 207.339 245.426 207.517 245.24 207.744C245.054 207.968 244.962 208.256 244.962 208.608C244.962 209.138 245.151 209.549 245.53 209.841C245.909 210.129 246.384 210.273 246.956 210.273ZM253.288 211V202.273H256.726C257.654 202.273 258.385 202.473 258.919 202.875C259.457 203.277 259.726 203.818 259.726 204.5C259.726 205.019 259.576 205.434 259.277 205.744C258.978 206.055 258.576 206.275 258.072 206.403C258.41 206.46 258.722 206.583 259.01 206.773C259.302 206.962 259.538 207.212 259.72 207.523C259.902 207.833 259.993 208.205 259.993 208.636C259.993 209.091 259.879 209.496 259.652 209.852C259.425 210.208 259.105 210.489 258.692 210.693C258.279 210.898 257.79 211 257.226 211H253.288ZM254.254 210.062H257.226C257.76 210.062 258.182 209.926 258.493 209.653C258.804 209.377 258.959 209.009 258.959 208.551C258.959 208.062 258.811 207.672 258.516 207.381C258.224 207.085 257.832 206.938 257.339 206.938H254.254V210.062ZM254.254 206.04H256.788C257.182 206.04 257.523 205.979 257.811 205.858C258.099 205.737 258.321 205.566 258.476 205.347C258.635 205.123 258.713 204.862 258.709 204.562C258.709 204.134 258.535 203.803 258.186 203.568C257.838 203.33 257.351 203.21 256.726 203.21H254.254V206.04ZM54.0852 224.182C54.0852 225.394 53.8693 226.449 53.4375 227.347C53.0057 228.241 52.411 228.934 51.6534 229.426C50.8996 229.915 50.0322 230.159 49.0511 230.159C48.0701 230.159 47.2008 229.915 46.4432 229.426C45.6894 228.934 45.0966 228.241 44.6648 227.347C44.2367 226.449 44.0227 225.394 44.0227 224.182C44.0227 222.97 44.2367 221.917 44.6648 221.023C45.0966 220.125 45.6913 219.432 46.4489 218.943C47.2064 218.451 48.0739 218.205 49.0511 218.205C50.0322 218.205 50.8996 218.451 51.6534 218.943C52.411 219.432 53.0057 220.125 53.4375 221.023C53.8693 221.917 54.0852 222.97 54.0852 224.182ZM53.0511 224.182C53.0511 223.14 52.8769 222.248 52.5284 221.506C52.1799 220.759 51.7045 220.189 51.1023 219.795C50.5 219.402 49.8163 219.205 49.0511 219.205C48.2898 219.205 47.608 219.402 47.0057 219.795C46.4034 220.189 45.9261 220.758 45.5739 221.5C45.2254 222.242 45.0511 223.136 45.0511 224.182C45.0511 225.223 45.2254 226.116 45.5739 226.858C45.9223 227.6 46.3977 228.17 47 228.568C47.6023 228.962 48.286 229.159 49.0511 229.159C49.8163 229.159 50.5 228.962 51.1023 228.568C51.7083 228.174 52.1856 227.606 52.5341 226.864C52.8826 226.117 53.0549 225.223 53.0511 224.182ZM56.456 230V221.273H63.0639V230H62.0469V222.227H57.473V230H56.456ZM66.5938 224.642H69.1506C70.1316 224.642 70.8892 224.881 71.4233 225.358C71.9574 225.835 72.2244 226.481 72.2244 227.295C72.2244 227.837 72.1032 228.311 71.8608 228.716C71.6222 229.121 71.2737 229.437 70.8153 229.665C70.357 229.888 69.8021 230 69.1506 230H65.7528V221.273H66.7699V229.045H69.1506C69.768 229.045 70.2642 228.898 70.6392 228.602C71.018 228.307 71.2074 227.886 71.2074 227.341C71.2074 226.784 71.018 226.354 70.6392 226.051C70.2642 225.748 69.768 225.597 69.1506 225.597H66.5938V224.642ZM73.696 230V221.273H74.7074V230H73.696ZM76.8636 222.227V221.273H83.6818V222.227H80.7955V230H79.7841V222.227H76.8636ZM90.3196 233.273V221.273H91.3026V222.938H91.4219C91.5431 222.676 91.7098 222.409 91.9219 222.136C92.134 221.86 92.4143 221.627 92.7628 221.438C93.1151 221.248 93.5582 221.153 94.0923 221.153C94.812 221.153 95.4408 221.343 95.9787 221.722C96.5204 222.097 96.9408 222.623 97.2401 223.301C97.5431 223.975 97.6946 224.761 97.6946 225.659C97.6946 226.561 97.5431 227.35 97.2401 228.028C96.9408 228.706 96.5204 229.235 95.9787 229.614C95.4408 229.992 94.8158 230.182 94.1037 230.182C93.5772 230.182 93.1359 230.087 92.7798 229.898C92.4276 229.708 92.1416 229.475 91.9219 229.199C91.706 228.919 91.5393 228.646 91.4219 228.381H91.331V233.273H90.3196ZM91.3196 225.642C91.3196 226.347 91.4238 226.972 91.6321 227.517C91.8442 228.059 92.1473 228.485 92.5412 228.795C92.9389 229.102 93.42 229.256 93.9844 229.256C94.5639 229.256 95.0526 229.097 95.4503 228.778C95.8518 228.456 96.1567 228.023 96.3651 227.477C96.5772 226.932 96.6832 226.32 96.6832 225.642C96.6832 224.972 96.5791 224.367 96.3707 223.83C96.1662 223.292 95.8632 222.866 95.4616 222.551C95.0601 222.233 94.5677 222.074 93.9844 222.074C93.4162 222.074 92.9332 222.227 92.5355 222.534C92.1378 222.837 91.8348 223.258 91.6264 223.795C91.4219 224.33 91.3196 224.945 91.3196 225.642ZM102.351 230.199C101.824 230.199 101.343 230.097 100.908 229.892C100.472 229.684 100.125 229.384 99.8679 228.994C99.6103 228.6 99.4815 228.123 99.4815 227.562C99.4815 227.131 99.563 226.767 99.7259 226.472C99.8887 226.176 100.12 225.934 100.419 225.744C100.718 225.555 101.072 225.405 101.482 225.295C101.891 225.186 102.341 225.1 102.834 225.04C103.322 224.979 103.735 224.926 104.072 224.881C104.413 224.835 104.673 224.763 104.851 224.665C105.029 224.566 105.118 224.407 105.118 224.188V223.983C105.118 223.388 104.94 222.92 104.584 222.58C104.232 222.235 103.724 222.062 103.061 222.062C102.432 222.062 101.919 222.201 101.521 222.477C101.127 222.754 100.851 223.08 100.692 223.455L99.7315 223.108C99.9285 222.631 100.201 222.25 100.55 221.966C100.898 221.678 101.288 221.472 101.72 221.347C102.152 221.218 102.589 221.153 103.033 221.153C103.366 221.153 103.713 221.197 104.072 221.284C104.436 221.371 104.773 221.523 105.084 221.739C105.394 221.951 105.646 222.248 105.839 222.631C106.033 223.009 106.129 223.491 106.129 224.074V230H105.118V228.619H105.055C104.934 228.877 104.754 229.127 104.516 229.369C104.277 229.612 103.978 229.811 103.618 229.966C103.258 230.121 102.836 230.199 102.351 230.199ZM102.487 229.273C103.025 229.273 103.491 229.153 103.885 228.915C104.279 228.676 104.582 228.36 104.794 227.966C105.01 227.568 105.118 227.131 105.118 226.653V225.392C105.042 225.464 104.915 225.528 104.737 225.585C104.563 225.642 104.36 225.693 104.129 225.739C103.902 225.78 103.675 225.816 103.447 225.847C103.22 225.877 103.016 225.903 102.834 225.926C102.341 225.987 101.921 226.081 101.572 226.21C101.224 226.339 100.957 226.517 100.771 226.744C100.586 226.968 100.493 227.256 100.493 227.608C100.493 228.138 100.682 228.549 101.061 228.841C101.44 229.129 101.915 229.273 102.487 229.273ZM115.104 218L115.632 218.642C115.393 218.873 115.107 219.032 114.774 219.119C114.445 219.203 114.075 219.25 113.666 219.261C113.261 219.273 112.823 219.29 112.354 219.312C111.679 219.347 111.125 219.523 110.689 219.841C110.253 220.155 109.922 220.61 109.695 221.205C109.471 221.795 109.331 222.517 109.274 223.369H109.388C109.679 222.775 110.09 222.322 110.621 222.011C111.155 221.701 111.742 221.545 112.382 221.545C113.053 221.545 113.655 221.71 114.189 222.04C114.727 222.366 115.151 222.845 115.462 223.477C115.776 224.106 115.933 224.873 115.933 225.778C115.933 226.672 115.776 227.451 115.462 228.114C115.147 228.773 114.708 229.282 114.143 229.642C113.579 230.002 112.918 230.182 112.161 230.182C111.399 230.182 110.732 230.004 110.161 229.648C109.592 229.288 109.151 228.759 108.837 228.062C108.526 227.362 108.371 226.5 108.371 225.477V224.562C108.371 222.528 108.693 220.998 109.337 219.972C109.981 218.945 110.971 218.409 112.308 218.364C112.74 218.348 113.132 218.345 113.484 218.352C113.837 218.356 114.147 218.339 114.416 218.301C114.685 218.259 114.914 218.159 115.104 218ZM112.161 229.256C112.725 229.256 113.214 229.114 113.626 228.83C114.039 228.542 114.357 228.136 114.581 227.614C114.808 227.091 114.922 226.479 114.922 225.778C114.922 225.081 114.806 224.487 114.575 223.994C114.348 223.502 114.03 223.125 113.621 222.864C113.212 222.602 112.732 222.472 112.183 222.472C111.751 222.472 111.363 222.555 111.018 222.722C110.678 222.884 110.386 223.117 110.143 223.42C109.901 223.723 109.715 224.08 109.587 224.489C109.458 224.898 109.392 225.347 109.388 225.835C109.388 226.892 109.634 227.727 110.126 228.341C110.623 228.951 111.301 229.256 112.161 229.256ZM121.54 230.182C120.786 230.182 120.119 229.991 119.54 229.608C118.964 229.225 118.513 228.697 118.188 228.023C117.862 227.345 117.699 226.562 117.699 225.676C117.699 224.782 117.862 223.996 118.188 223.318C118.513 222.636 118.964 222.106 119.54 221.727C120.119 221.345 120.786 221.153 121.54 221.153C122.294 221.153 122.958 221.345 123.534 221.727C124.11 222.11 124.561 222.64 124.886 223.318C125.216 223.996 125.381 224.782 125.381 225.676C125.381 226.562 125.218 227.345 124.892 228.023C124.566 228.697 124.114 229.225 123.534 229.608C122.958 229.991 122.294 230.182 121.54 230.182ZM121.54 229.256C122.146 229.256 122.659 229.093 123.08 228.767C123.5 228.441 123.818 228.008 124.034 227.466C124.254 226.924 124.364 226.328 124.364 225.676C124.364 225.025 124.254 224.426 124.034 223.881C123.818 223.335 123.5 222.898 123.08 222.568C122.659 222.239 122.146 222.074 121.54 222.074C120.938 222.074 120.424 222.239 120 222.568C119.58 222.898 119.259 223.335 119.04 223.881C118.824 224.426 118.716 225.025 118.716 225.676C118.716 226.328 118.824 226.924 119.04 227.466C119.259 228.008 119.58 228.441 120 228.767C120.42 229.093 120.934 229.256 121.54 229.256ZM126.426 222.227V221.273H133.244V222.227H130.358V230H129.347V222.227H126.426ZM136.234 224.642H138.791C139.772 224.642 140.53 224.881 141.064 225.358C141.598 225.835 141.865 226.481 141.865 227.295C141.865 227.837 141.744 228.311 141.501 228.716C141.263 229.121 140.914 229.437 140.456 229.665C139.998 229.888 139.443 230 138.791 230H135.393V221.273H136.411V229.045H138.791C139.409 229.045 139.905 228.898 140.28 228.602C140.659 228.307 140.848 227.886 140.848 227.341C140.848 226.784 140.659 226.354 140.28 226.051C139.905 225.748 139.409 225.597 138.791 225.597H136.234V224.642ZM143.337 230V221.273H144.348V230H143.337ZM156.249 223.705V224.659H151.408V223.705H156.249ZM166.839 218.364V230H165.777V219.477H165.709L162.982 221.29V220.188L165.732 218.364H166.839ZM173.987 230.159C173.169 230.159 172.47 229.924 171.891 229.455C171.315 228.981 170.872 228.297 170.561 227.403C170.254 226.509 170.101 225.436 170.101 224.182C170.101 222.932 170.254 221.862 170.561 220.972C170.872 220.078 171.317 219.394 171.896 218.92C172.48 218.443 173.177 218.205 173.987 218.205C174.798 218.205 175.493 218.443 176.072 218.92C176.656 219.394 177.101 220.078 177.408 220.972C177.718 221.862 177.874 222.932 177.874 224.182C177.874 225.436 177.718 226.509 177.408 227.403C177.101 228.297 176.658 228.981 176.078 229.455C175.502 229.924 174.805 230.159 173.987 230.159ZM173.987 229.205C174.885 229.205 175.586 228.767 176.089 227.892C176.593 227.013 176.845 225.777 176.845 224.182C176.845 223.121 176.73 222.216 176.499 221.466C176.271 220.712 175.944 220.136 175.516 219.739C175.091 219.341 174.582 219.142 173.987 219.142C173.097 219.142 172.398 219.585 171.891 220.472C171.383 221.354 171.129 222.591 171.129 224.182C171.129 225.242 171.243 226.148 171.47 226.898C171.701 227.648 172.029 228.22 172.453 228.614C172.881 229.008 173.393 229.205 173.987 229.205ZM183.868 230V229.045H184.141C184.451 229.045 184.701 228.989 184.891 228.875C185.084 228.758 185.233 228.561 185.339 228.284C185.446 228.008 185.525 227.631 185.578 227.153C185.631 226.676 185.673 226.078 185.703 225.358L185.891 221.273H191.436V230H190.419V222.227H186.851L186.686 225.699C186.652 226.407 186.595 227.03 186.516 227.568C186.44 228.106 186.315 228.555 186.141 228.915C185.97 229.275 185.732 229.545 185.425 229.727C185.122 229.909 184.724 230 184.232 230H183.868ZM197.645 230.182C196.83 230.182 196.126 229.992 195.531 229.614C194.937 229.231 194.476 228.703 194.151 228.028C193.829 227.35 193.668 226.57 193.668 225.688C193.668 224.809 193.829 224.028 194.151 223.347C194.476 222.661 194.925 222.125 195.497 221.739C196.073 221.348 196.738 221.153 197.491 221.153C197.965 221.153 198.421 221.241 198.861 221.415C199.3 221.585 199.694 221.848 200.043 222.205C200.395 222.557 200.673 223.002 200.878 223.54C201.082 224.074 201.185 224.706 201.185 225.438V225.938H194.366V225.045H200.151C200.151 224.485 200.037 223.981 199.81 223.534C199.586 223.083 199.274 222.727 198.872 222.466C198.474 222.205 198.014 222.074 197.491 222.074C196.938 222.074 196.452 222.222 196.031 222.517C195.611 222.812 195.281 223.203 195.043 223.688C194.808 224.172 194.688 224.703 194.685 225.278V225.812C194.685 226.506 194.804 227.112 195.043 227.631C195.285 228.146 195.628 228.545 196.071 228.83C196.514 229.114 197.039 229.256 197.645 229.256C198.058 229.256 198.42 229.191 198.73 229.062C199.045 228.934 199.308 228.761 199.52 228.545C199.736 228.326 199.899 228.085 200.009 227.824L200.969 228.136C200.836 228.504 200.618 228.843 200.315 229.153C200.016 229.464 199.641 229.714 199.19 229.903C198.743 230.089 198.228 230.182 197.645 230.182ZM202.567 222.227V221.273H209.385V222.227H206.499V230H205.487V222.227H202.567Z" fill="white"/>
</svg>
