<svg width="30" height="30" viewBox="0 0 30 30" fill="none" xmlns="http://www.w3.org/2000/svg">
<rect x="0.5" y="0.5" width="29" height="29" fill="#1B1B1B" stroke="white"/>
<path d="M11.3693 10.1818V11.1726H6.68395V10.1818H11.3693ZM8.14773 7.82955H9.2919V17.4368C9.2919 17.8459 9.36222 18.1676 9.50284 18.402C9.64347 18.6321 9.8267 18.7962 10.0526 18.8942C10.2784 18.9879 10.5192 19.0348 10.7749 19.0348C10.924 19.0348 11.0518 19.0263 11.1584 19.0092C11.2649 18.9879 11.3587 18.9666 11.4396 18.9453L11.6825 19.9744C11.5717 20.017 11.4354 20.0554 11.2734 20.0895C11.1115 20.1278 10.9112 20.147 10.6726 20.147C10.255 20.147 9.85227 20.0554 9.46449 19.8722C9.08097 19.6889 8.76563 19.4162 8.51847 19.054C8.27131 18.6918 8.14773 18.2422 8.14773 17.7053V7.82955ZM17.5936 23.8864C16.9245 23.8864 16.3386 23.799 15.8358 23.6243C15.3329 23.4538 14.9089 23.2195 14.5637 22.9212C14.2186 22.6229 13.9501 22.2884 13.7583 21.9176L14.6916 21.304C14.8322 21.5511 15.0197 21.794 15.2541 22.0327C15.4927 22.2713 15.8017 22.4695 16.1809 22.6271C16.5645 22.7848 17.0353 22.8636 17.5936 22.8636C18.4629 22.8636 19.1639 22.6463 19.6966 22.2116C20.2335 21.777 20.502 21.1016 20.502 20.1854V17.9737H20.3997C20.2676 18.272 20.0779 18.5703 19.8308 18.8686C19.5836 19.1626 19.2598 19.4077 18.8592 19.6037C18.4629 19.7997 17.9707 19.8977 17.3826 19.8977C16.5985 19.8977 15.9018 19.7038 15.2924 19.3161C14.6873 18.9283 14.21 18.3743 13.8606 17.6541C13.5154 16.9297 13.3429 16.0668 13.3429 15.0653C13.3429 14.0724 13.5112 13.1989 13.8478 12.4446C14.1887 11.6903 14.6639 11.1023 15.2733 10.6804C15.8826 10.2585 16.5922 10.0476 17.4018 10.0476C18.0027 10.0476 18.5012 10.1541 18.8976 10.3672C19.2939 10.576 19.6113 10.8359 19.85 11.147C20.0929 11.4581 20.2825 11.7607 20.4189 12.0547H20.5339V10.1818H21.6461V20.2557C21.6461 21.0866 21.4693 21.7706 21.1156 22.3075C20.7619 22.8445 20.2804 23.2408 19.671 23.4964C19.0616 23.7564 18.3691 23.8864 17.5936 23.8864ZM17.5169 18.8558C18.1475 18.8558 18.6866 18.7045 19.1341 18.402C19.5815 18.0952 19.9245 17.6562 20.1632 17.0852C20.4018 16.5142 20.5211 15.8345 20.5211 15.0462C20.5211 14.2791 20.4039 13.5994 20.1696 13.0071C19.9352 12.4105 19.5943 11.9418 19.1468 11.6009C18.7037 11.2557 18.1603 11.0831 17.5169 11.0831C16.8606 11.0831 16.3066 11.2599 15.8549 11.6136C15.4032 11.9673 15.0623 12.4446 14.8322 13.0455C14.6021 13.642 14.487 14.3089 14.487 15.0462C14.487 15.7962 14.6042 16.4588 14.8386 17.0341C15.073 17.6051 15.416 18.0526 15.8677 18.3764C16.3194 18.696 16.8691 18.8558 17.5169 18.8558Z" fill="white"/>
</svg>
